# This file uses centimeters as units for non-parametric coordinates.

mtllib ButterflyBolt.mtl
g default
v -0.364092 -0.630626 -1.167042
v 0.364092 -0.630626 -1.167042
v 0.728184 0.000000 -1.167042
v 0.364092 0.630626 -1.167042
v -0.364092 0.630626 -1.167042
v -0.728184 0.000000 -1.167042
v -0.364092 -0.630626 -0.533795
v 0.364092 -0.630626 -0.533795
v 0.728184 -0.000000 -0.533795
v 0.364092 0.630626 -0.533795
v -0.364092 0.630626 -0.533795
v -0.728184 -0.000000 -0.533795
v -0.176069 -0.304960 -0.533795
v 0.176069 -0.304960 -0.533795
v 0.352138 -0.000000 -0.533795
v 0.176069 0.304960 -0.533795
v -0.176069 0.304960 -0.533795
v -0.352138 -0.000000 -0.533795
v -0.176069 -0.304960 1.825916
v 0.176069 -0.304960 1.825916
v 0.352138 -0.000000 1.825916
v 0.176069 0.304960 1.825916
v -0.176069 0.304960 1.825916
v -0.352138 -0.000000 1.825916
vt 0.164609 0.521932
vt 0.164609 0.527009
vt 0.157676 0.527009
vt 0.157676 0.521932
vt 0.164609 0.529547
vt 0.157676 0.529547
vt 0.153105 0.530058
vt 0.157501 0.530058
vt 0.157501 0.536991
vt 0.153105 0.536991
vt 0.147854 0.530058
vt 0.152930 0.530058
vt 0.152930 0.536991
vt 0.147854 0.536991
vt 0.164784 0.530724
vt 0.164784 0.526329
vt 0.171718 0.526329
vt 0.171718 0.530724
vt 0.164784 0.521932
vt 0.171718 0.521932
vt 0.153542 0.514205
vt 0.157938 0.511667
vt 0.162334 0.514205
vt 0.162334 0.519281
vt 0.157938 0.521819
vt 0.153542 0.519281
vt 0.147679 0.531285
vt 0.147679 0.533740
vt 0.145553 0.534967
vt 0.143427 0.533740
vt 0.143427 0.531285
vt 0.145553 0.530058
vt 0.171340 0.514205
vt 0.171340 0.519281
vt 0.169070 0.517970
vt 0.169070 0.515515
vt 0.166944 0.521819
vt 0.166944 0.519197
vt 0.166944 0.511667
vt 0.166944 0.514288
vt 0.162548 0.519281
vt 0.164818 0.517970
vt 0.162548 0.514205
vt 0.164818 0.515515
vt 0.146990 0.529944
vt 0.144535 0.529944
vt 0.144535 0.511667
vt 0.146990 0.511667
vt 0.143308 0.529944
vt 0.143308 0.511667
vt 0.148217 0.529944
vt 0.148217 0.511667
vt 0.149655 0.511667
vt 0.152110 0.511667
vt 0.152110 0.529944
vt 0.149655 0.529944
vt 0.153337 0.511667
vt 0.153337 0.529944
vt 0.148428 0.511667
vt 0.148428 0.529944
vn -0.000000 -1.000000 -0.000000
vn -0.000000 -1.000000 -0.000000
vn -0.000000 -1.000000 -0.000000
vn -0.000000 -1.000000 -0.000000
vn 0.866025 -0.500000 -0.000000
vn 0.866025 -0.500000 -0.000000
vn 0.866025 -0.500000 -0.000000
vn 0.866025 -0.500000 -0.000000
vn 0.866026 0.500000 0.000000
vn 0.866026 0.500000 0.000000
vn 0.866026 0.500000 0.000000
vn 0.866026 0.500000 0.000000
vn 0.000000 1.000000 0.000000
vn 0.000000 1.000000 0.000000
vn 0.000000 1.000000 0.000000
vn 0.000000 1.000000 0.000000
vn -0.866025 0.500000 0.000000
vn -0.866025 0.500000 0.000000
vn -0.866025 0.500000 0.000000
vn -0.866025 0.500000 0.000000
vn -0.866026 -0.500000 -0.000000
vn -0.866026 -0.500000 -0.000000
vn -0.866026 -0.500000 -0.000000
vn -0.866026 -0.500000 -0.000000
vn 0.000000 0.000000 -1.000000
vn 0.000000 0.000000 -1.000000
vn 0.000000 0.000000 -1.000000
vn 0.000000 0.000000 -1.000000
vn 0.000000 0.000000 -1.000000
vn 0.000000 0.000000 -1.000000
vn 0.000000 0.000000 1.000000
vn 0.000000 0.000000 1.000000
vn 0.000000 0.000000 1.000000
vn 0.000000 0.000000 1.000000
vn 0.000000 0.000000 1.000000
vn 0.000000 0.000000 1.000000
vn 0.000000 0.000000 1.000000
vn 0.000000 0.000000 1.000000
vn 0.000000 0.000000 1.000000
vn 0.000000 0.000000 1.000000
vn -0.000000 -0.000000 1.000000
vn -0.000000 -0.000000 1.000000
vn -0.000000 -0.000000 1.000000
vn -0.000000 -0.000000 1.000000
vn -0.000000 -0.000000 1.000000
vn -0.000000 -0.000000 1.000000
vn 0.000000 0.000000 1.000000
vn 0.000000 0.000000 1.000000
vn -0.500000 -0.866026 -0.000000
vn 0.499999 -0.866026 -0.000000
vn 0.499999 -0.866026 -0.000000
vn -0.500000 -0.866026 -0.000000
vn 1.000000 -0.000000 -0.000000
vn 1.000000 -0.000000 -0.000000
vn 0.500000 0.866026 0.000000
vn 0.500000 0.866026 0.000000
vn -0.500000 0.866026 0.000000
vn -0.500000 0.866026 0.000000
vn -1.000000 0.000000 0.000000
vn -1.000000 0.000000 0.000000
s off
g Bolt
usemtl blinn1SG
f 1/1/1 2/2/2 8/3/3 7/4/4
f 2/2/5 3/5/6 9/6/7 8/3/8
f 3/7/9 4/8/10 10/9/11 9/10/12
f 4/11/13 5/12/14 11/13/15 10/14/16
f 5/15/17 6/16/18 12/17/19 11/18/20
f 6/16/21 1/19/22 7/20/23 12/17/24
f 1/21/25 6/22/26 5/23/27 4/24/28 3/25/29 2/26/30
f 19/27/31 20/28/32 21/29/33 22/30/34 23/31/35 24/32/36
s 1
f 7/33/37 8/34/38 14/35/39 13/36/40
f 8/34/38 9/37/41 15/38/42 14/35/39
f 9/37/41 10/41/43 16/42/44 15/38/42
f 10/41/43 11/43/45 17/44/46 16/42/44
f 11/43/45 12/39/47 18/40/48 17/44/46
f 12/39/47 7/33/37 13/36/40 18/40/48
s 2
f 13/45/49 14/46/50 20/47/51 19/48/52
f 14/46/50 15/49/53 21/50/54 20/47/51
f 15/59/53 16/53/55 22/56/56 21/60/54
f 16/53/55 17/54/57 23/55/58 22/56/56
f 17/54/57 18/57/59 24/58/60 23/55/58
f 18/51/59 13/45/49 19/48/52 24/52/60
