# This file uses centimeters as units for non-parametric coordinates.

mtllib ButterflyWingL.mtl
g default
v 1.374744 0.628786 0.039372
v 0.586631 0.228247 0.213449
v 1.514413 0.475798 -0.054554
v 0.726299 0.075259 0.119523
v 1.070205 0.640770 -0.651422
v 0.424807 0.075259 -0.168439
v 0.930537 0.793758 -0.557497
v 0.285139 0.228247 -0.074514
v 1.448411 0.983590 -0.950335
v 2.390759 0.983590 -0.050276
v 2.431804 0.751693 -0.077878
v 1.489456 0.751693 -0.977937
v 1.801818 0.787837 -1.373976
v 2.860953 0.804930 -0.489522
v 2.891091 0.570197 -0.509790
v 1.831956 0.553105 -1.394244
v 2.415330 0.303995 -1.735175
v 2.757698 0.303995 -1.408171
v 2.740357 0.067067 -1.396510
v 2.397989 0.067067 -1.723513
vt 0.375000 0.000000
vt 0.625000 0.000000
vt 0.375000 0.250000
vt 0.625000 0.250000
vt 0.375000 0.500000
vt 0.625000 0.500000
vt 0.375000 0.750000
vt 0.625000 0.750000
vt 0.375000 1.000000
vt 0.625000 1.000000
vt 0.875000 0.000000
vt 0.875000 0.250000
vt 0.125000 0.000000
vt 0.125000 0.250000
vt 0.125000 0.000000
vt 0.375000 0.000000
vt 0.375000 0.250000
vt 0.125000 0.250000
vt 0.125000 0.000000
vt 0.375000 0.000000
vt 0.375000 0.250000
vt 0.125000 0.250000
vt 0.125000 0.000000
vt 0.375000 0.000000
vt 0.375000 0.250000
vt 0.125000 0.250000
vn 0.294030 -0.253681 0.921516
vn 0.330668 -0.255832 0.908410
vn 0.330668 -0.255832 0.908410
vn 0.167164 -0.243578 0.955367
vn 0.257951 -0.900041 -0.351266
vn 0.349354 -0.823022 -0.447870
vn 0.349354 -0.823021 -0.447869
vn 0.260610 -0.898162 -0.354101
vn -0.596505 -0.031053 -0.802008
vn -0.581142 -0.031288 -0.813200
vn -0.581142 -0.031288 -0.813200
vn -0.582697 -0.031265 -0.812088
vn -0.273359 0.890597 0.363471
vn -0.349354 0.823021 0.447869
vn -0.349354 0.823022 0.447869
vn -0.272147 0.891520 0.362116
vn -0.470545 -0.732038 0.492654
vn -0.470545 -0.732038 0.492654
vn -0.470545 -0.732038 0.492654
vn -0.470545 -0.732038 0.492654
vn 0.688146 -0.085825 -0.720478
vn 0.688146 -0.085825 -0.720478
vn 0.688146 -0.085825 -0.720478
vn 0.688146 -0.085825 -0.720478
vn 0.008224 0.999893 0.012115
vn -0.005964 0.999524 0.030257
vn 0.134576 -0.240349 0.961312
vn 0.134576 -0.240349 0.961312
vn -0.032462 -0.999396 0.012428
vn -0.048303 -0.998281 0.033189
vn -0.620145 -0.033260 -0.783782
vn -0.757751 -0.052006 -0.650468
vn 0.290244 0.893607 -0.342383
vn 0.282015 0.899958 -0.332481
vn 0.689893 0.031046 0.723245
vn 0.689893 0.031046 0.723245
vn 0.994865 0.030599 -0.096478
vn 0.785631 0.032795 0.617826
vn -0.295197 -0.890062 0.347345
vn -0.303471 -0.883327 0.357265
vn -0.781496 -0.055464 -0.621440
vn -0.781496 -0.055464 -0.621440
vn 0.387852 0.798750 -0.459966
vn 0.387852 0.798750 -0.459966
vn 0.987409 0.029628 -0.155392
vn 0.987409 0.029628 -0.155392
vn -0.411205 -0.770807 0.486587
vn -0.411205 -0.770807 0.486587
vn -0.503900 0.002089 -0.863759
vn -0.503900 0.002089 -0.863759
vn -0.503900 0.002089 -0.863759
vn -0.503900 0.002089 -0.863759
s 1
g pCube2
usemtl blinn2SG
f 1/1/1 2/2/2 4/4/3 3/3/4
s 2
f 3/3/5 4/4/6 6/6/7 5/5/8
s 3
f 5/5/9 6/6/10 8/8/11 7/7/12
s 4
f 7/7/13 8/8/14 2/10/15 1/9/16
s off
f 2/2/17 8/11/18 6/12/19 4/4/20
f 17/23/21 18/24/22 19/25/23 20/26/24
s 4
f 7/13/13 1/1/16 10/16/25 9/15/26
s 1
f 1/1/1 3/3/4 11/17/27 10/16/28
s 2
f 3/3/5 5/14/8 12/18/29 11/17/30
s 3
f 5/14/9 7/13/12 9/15/31 12/18/32
s 4
f 9/15/26 10/16/25 14/20/33 13/19/34
s 5
f 10/16/35 11/17/36 15/21/37 14/20/38
s 2
f 11/17/30 12/18/29 16/22/39 15/21/40
s 3
f 12/18/32 9/15/31 13/19/41 16/22/42
s 4
f 13/19/34 14/20/33 18/24/43 17/23/44
s 5
f 14/20/38 15/21/37 19/25/45 18/24/46
s 2
f 15/21/40 16/22/39 20/26/47 19/25/48
s off
f 16/22/49 13/19/50 17/23/51 20/26/52
g default
v -1.514413 0.475798 -0.054554
v -0.726299 0.075259 0.119523
v -1.374744 0.628786 0.039372
v -0.586631 0.228247 0.213449
v -0.930537 0.793758 -0.557497
v -0.285139 0.228247 -0.074514
v -1.070205 0.640770 -0.651422
v -0.424807 0.075259 -0.168439
v -1.483151 0.750094 -0.973697
v -2.425499 0.750094 -0.073638
v -2.397064 0.985189 -0.054516
v -1.454716 0.985189 -0.954575
v -1.802759 0.569409 -1.374609
v -2.862036 0.553465 -0.490250
v -2.890151 0.788624 -0.509157
v -1.830874 0.804569 -1.393516
v -2.374649 0.074104 -1.707817
v -2.717017 0.074105 -1.380813
v -2.781037 0.296958 -1.423867
v -2.438670 0.296958 -1.750870
vt 0.375000 0.000000
vt 0.625000 0.000000
vt 0.375000 0.250000
vt 0.625000 0.250000
vt 0.375000 0.500000
vt 0.625000 0.500000
vt 0.375000 0.750000
vt 0.625000 0.750000
vt 0.375000 1.000000
vt 0.625000 1.000000
vt 0.875000 0.000000
vt 0.875000 0.250000
vt 0.125000 0.000000
vt 0.125000 0.250000
vt 0.125000 0.000000
vt 0.375000 0.000000
vt 0.375000 0.250000
vt 0.125000 0.250000
vt 0.125000 0.000000
vt 0.375000 0.000000
vt 0.375000 0.250000
vt 0.125000 0.250000
vt 0.125000 0.000000
vt 0.375000 0.000000
vt 0.375000 0.250000
vt 0.125000 0.250000
vn -0.163453 -0.230836 0.959165
vn -0.330668 -0.255832 0.908410
vn -0.330668 -0.255832 0.908410
vn -0.293577 -0.250853 0.922434
vn 0.271196 0.892162 0.361246
vn 0.349354 0.823022 0.447870
vn 0.349354 0.823021 0.447869
vn 0.272377 0.891268 0.362563
vn 0.582727 -0.031112 -0.812072
vn 0.581142 -0.031288 -0.813200
vn 0.581142 -0.031288 -0.813200
vn 0.596839 -0.029525 -0.801818
vn -0.261650 -0.897471 -0.355083
vn -0.349354 -0.823021 -0.447870
vn -0.349354 -0.823021 -0.447870
vn -0.258934 -0.899400 -0.352182
vn 0.470545 -0.732038 0.492654
vn 0.470545 -0.732038 0.492654
vn 0.470545 -0.732038 0.492654
vn 0.470545 -0.732038 0.492654
vn -0.654304 -0.320312 -0.685045
vn -0.654304 -0.320312 -0.685045
vn -0.654304 -0.320312 -0.685045
vn -0.654304 -0.320312 -0.685045
vn 0.055332 -0.998034 0.029439
vn 0.038733 -0.999213 0.008511
vn -0.129839 -0.225053 0.965657
vn -0.129839 -0.225053 0.965657
vn 0.000942 0.999414 0.034210
vn -0.013207 0.999773 0.016693
vn 0.747772 -0.004510 -0.663940
vn 0.622506 -0.025823 -0.782189
vn 0.320294 -0.877419 0.357138
vn 0.305874 -0.889279 0.340034
vn -0.683859 0.000132 0.729614
vn -0.683859 0.000132 0.729614
vn -0.796972 -0.046295 0.602240
vn -0.981130 -0.185804 0.053493
vn -0.286582 0.903763 -0.317937
vn -0.302669 0.891553 -0.336933
vn 0.770121 -0.000232 -0.637898
vn 0.770121 -0.000232 -0.637897
vn 0.417300 -0.776194 0.472634
vn 0.417300 -0.776194 0.472634
vn -0.979142 -0.200990 -0.029727
vn -0.979142 -0.200990 -0.029727
vn -0.406825 0.789035 -0.460344
vn -0.406825 0.789035 -0.460344
vn 0.513254 -0.012842 -0.858140
vn 0.513255 -0.012842 -0.858140
vn 0.513255 -0.012842 -0.858140
vn 0.513255 -0.012842 -0.858140
s 1
g pCube1
usemtl blinn2SG
f 21/27/53 22/28/54 24/30/55 23/29/56
s 2
f 23/29/57 24/30/58 26/32/59 25/31/60
s 3
f 25/31/61 26/32/62 28/34/63 27/33/64
s 4
f 27/33/65 28/34/66 22/36/67 21/35/68
s off
f 22/28/69 28/37/70 26/38/71 24/30/72
f 37/49/73 38/50/74 39/51/75 40/52/76
s 4
f 27/39/65 21/27/68 30/42/77 29/41/78
s 1
f 21/27/53 23/29/56 31/43/79 30/42/80
s 2
f 23/29/57 25/40/60 32/44/81 31/43/82
s 3
f 25/40/61 27/39/64 29/41/83 32/44/84
s 4
f 29/41/78 30/42/77 34/46/85 33/45/86
s 5
f 30/42/87 31/43/88 35/47/89 34/46/90
s 2
f 31/43/82 32/44/81 36/48/91 35/47/92
s 3
f 32/44/84 29/41/83 33/45/93 36/48/94
s 4
f 33/45/86 34/46/85 38/50/95 37/49/96
s 5
f 34/46/90 35/47/89 39/51/97 38/50/98
s 2
f 35/47/92 36/48/91 40/52/99 39/51/100
s off
f 36/48/101 33/45/102 37/49/103 40/52/104
