# This file uses centimeters as units for non-parametric coordinates.

mtllib GlassSquare.mtl
g default
v 6.916147 15.937575 5.197773
v 9.256498 15.937575 5.197773
v 6.916147 18.745996 5.197773
v 9.256498 18.745996 5.197773
vt 0.000000 0.000000
vt 0.833333 0.000000
vt 0.000000 1.000000
vt 0.833333 1.000000
vn 0.000000 0.000000 1.000000
vn 0.000000 0.000000 1.000000
vn 0.000000 0.000000 1.000000
vn 0.000000 0.000000 1.000000
s off
g Glass1 Window1 HouseBase1
usemtl phongE1SG
f 1/1/1 2/2/2 4/4/3 3/3/4
