# This file uses centimeters as units for non-parametric coordinates.

mtllib TransformerSpire.mtl
g default
v 6.707980 22.836963 -9.337253
v 6.531966 22.836963 -9.465134
v 6.314402 22.836963 -9.465134
v 6.138389 22.836963 -9.337253
v 6.071158 22.836963 -9.130339
v 6.138389 22.836963 -8.923422
v 6.314402 22.836963 -8.795541
v 6.531966 22.836963 -8.795541
v 6.707980 22.836963 -8.923422
v 6.775210 22.836963 -9.130339
v 6.625518 23.629558 -9.277342
v 6.500469 23.629558 -9.368195
v 6.345900 23.629558 -9.368195
v 6.220850 23.629558 -9.277342
v 6.173087 23.629558 -9.130339
v 6.220850 23.629558 -8.983334
v 6.345900 23.629558 -8.892481
v 6.500469 23.629558 -8.892481
v 6.625518 23.629558 -8.983334
v 6.673282 23.629558 -9.130339
v 6.559376 24.856133 -9.229286
v 6.475204 24.856133 -9.290442
v 6.371162 24.856133 -9.290442
v 6.286992 24.856133 -9.229286
v 6.254842 24.856133 -9.130339
v 6.286992 24.856133 -9.031389
v 6.371162 24.856133 -8.970234
v 6.475204 24.856133 -8.970234
v 6.559376 24.856133 -9.031389
v 6.591526 24.856133 -9.130339
v 6.523098 26.724056 -9.202931
v 6.461347 26.724056 -9.247795
v 6.385020 26.724056 -9.247793
v 6.323270 26.724056 -9.202931
v 6.299683 26.724056 -9.130339
v 6.323270 26.724056 -9.057744
v 6.385021 26.724056 -9.012882
v 6.461348 26.724056 -9.012882
v 6.523098 26.724055 -9.057746
v 6.546685 26.724056 -9.130339
v 6.514975 28.043432 -9.197027
v 6.458244 28.043432 -9.238245
v 6.423184 28.043432 -9.130339
v 6.388123 28.043432 -9.238243
v 6.331393 28.043432 -9.197025
v 6.309723 28.043432 -9.130339
v 6.331393 28.043432 -9.063647
v 6.388123 28.043432 -9.022429
v 6.458246 28.043432 -9.022431
v 6.514976 28.043431 -9.063648
v 6.536645 28.043432 -9.130339
v 6.893453 21.817950 -9.472007
v 6.602812 21.817950 -9.683175
v 6.423184 21.817950 -9.130339
v 6.243558 21.817950 -9.683175
v 5.952915 21.817950 -9.472007
v 5.841900 21.817950 -9.130337
v 5.952915 21.817950 -8.788665
v 6.243558 21.817950 -8.577501
v 6.602812 21.817950 -8.577501
v 6.893453 21.817950 -8.788665
v 7.004465 21.817950 -9.130337
vt 0.626409 0.064409
vt 0.548284 0.007647
vt 0.451716 0.007647
vt 0.373591 0.064409
vt 0.343750 0.156250
vt 0.373591 0.248091
vt 0.451716 0.304853
vt 0.548284 0.304853
vt 0.626409 0.248091
vt 0.656250 0.156250
vt 0.375000 0.312500
vt 0.400000 0.312500
vt 0.425000 0.312500
vt 0.450000 0.312500
vt 0.475000 0.312500
vt 0.500000 0.312500
vt 0.525000 0.312500
vt 0.550000 0.312500
vt 0.575000 0.312500
vt 0.600000 0.312500
vt 0.625000 0.312500
vt 0.375000 0.688440
vt 0.400000 0.688440
vt 0.425000 0.688440
vt 0.450000 0.688440
vt 0.475000 0.688440
vt 0.500000 0.688440
vt 0.525000 0.688440
vt 0.550000 0.688440
vt 0.575000 0.688440
vt 0.600000 0.688440
vt 0.625000 0.688440
vt 0.626409 0.751909
vt 0.548284 0.695147
vt 0.451716 0.695147
vt 0.373591 0.751909
vt 0.343750 0.843750
vt 0.373591 0.935591
vt 0.451716 0.992353
vt 0.548284 0.992353
vt 0.626409 0.935591
vt 0.656250 0.843750
vt 0.500000 0.150000
vt 0.500000 0.837500
vt 0.626409 0.935591
vt 0.548284 0.992353
vt 0.451716 0.992353
vt 0.373591 0.935591
vt 0.343750 0.843750
vt 0.373591 0.751909
vt 0.451716 0.695147
vt 0.548284 0.695147
vt 0.626409 0.751909
vt 0.656250 0.843750
vt 0.626409 0.935591
vt 0.548284 0.992353
vt 0.451716 0.992353
vt 0.373591 0.935591
vt 0.343750 0.843750
vt 0.373591 0.751909
vt 0.451716 0.695147
vt 0.548284 0.695147
vt 0.626409 0.751909
vt 0.656250 0.843750
vt 0.626409 0.935591
vt 0.548284 0.992353
vt 0.451716 0.992353
vt 0.373591 0.935591
vt 0.343750 0.843750
vt 0.373591 0.751909
vt 0.451716 0.695147
vt 0.548284 0.695147
vt 0.626409 0.751909
vt 0.656250 0.843750
vt 0.548284 0.007647
vt 0.626409 0.064409
vt 0.451716 0.007647
vt 0.373591 0.064409
vt 0.343750 0.156250
vt 0.373591 0.248091
vt 0.451716 0.304853
vt 0.548284 0.304853
vt 0.626409 0.248091
vt 0.656250 0.156250
vn 0.794052 0.191462 -0.576909
vn 0.303302 0.191464 -0.933461
vn 0.307560 0.097007 -0.946571
vn 0.805201 0.097007 -0.585014
vn -0.303302 0.191464 -0.933461
vn -0.307560 0.097007 -0.946571
vn -0.794050 0.191463 -0.576911
vn -0.805201 0.097007 -0.585013
vn -0.981500 0.191463 -0.000000
vn -0.995284 0.097007 -0.000000
vn -0.794051 0.191464 0.576909
vn -0.805203 0.097007 0.585010
vn -0.303300 0.191464 0.933462
vn -0.307560 0.097007 0.946571
vn 0.303300 0.191464 0.933462
vn 0.307560 0.097007 0.946571
vn 0.794052 0.191463 0.576908
vn 0.805203 0.097007 0.585011
vn 0.981500 0.191461 -0.000000
vn 0.995284 0.097007 -0.000000
vn 0.308026 -0.080116 -0.947999
vn 0.806419 -0.080119 -0.585893
vn 0.000000 -1.000000 -0.000000
vn -0.308025 -0.080117 -0.947999
vn -0.806417 -0.080119 -0.585895
vn -0.996785 -0.080118 0.000001
vn -0.806417 -0.080117 0.585895
vn -0.308023 -0.080117 0.947999
vn 0.308024 -0.080117 0.947999
vn 0.806418 -0.080118 0.585893
vn 0.996785 -0.080120 0.000001
vn 0.808351 0.040436 -0.587310
vn 0.308756 0.040436 -0.950281
vn 0.000001 1.000000 0.000001
vn -0.308774 0.040436 -0.950276
vn -0.808350 0.040436 -0.587312
vn -0.999182 0.040435 -0.000000
vn -0.808357 0.040436 0.587303
vn -0.308755 0.040435 0.950282
vn 0.308772 0.040436 0.950276
vn 0.808357 0.040435 0.587301
vn 0.999182 0.040435 -0.000003
vn 0.308704 0.044955 -0.950095
vn 0.808198 0.044955 -0.587192
vn -0.308708 0.044955 -0.950094
vn -0.808199 0.044955 -0.587191
vn -0.998989 0.044955 -0.000000
vn -0.808202 0.044955 0.587188
vn -0.308705 0.044955 0.950095
vn 0.308707 0.044955 0.950094
vn 0.808201 0.044955 0.587188
vn 0.998989 0.044955 -0.000000
vn 0.308962 0.018067 -0.950903
vn 0.808882 0.018066 -0.587693
vn -0.308972 0.018067 -0.950899
vn -0.808882 0.018067 -0.587693
vn -0.999837 0.018066 -0.000000
vn -0.808886 0.018066 0.587687
vn -0.308962 0.018066 0.950903
vn 0.308971 0.018066 0.950900
vn 0.808887 0.018066 0.587687
vn 0.999837 0.018066 -0.000001
s 1
g ConductorRod1 Conductor2 EnergyBox1 HouseBase1
usemtl blinn3SG
f 1/11/1 2/12/2 12/23/3 11/22/4
f 2/12/2 3/13/5 13/24/6 12/23/3
f 3/13/5 4/14/7 14/25/8 13/24/6
f 4/14/7 5/15/9 15/26/10 14/25/8
f 5/15/9 6/16/11 16/27/12 15/26/10
f 6/16/11 7/17/13 17/28/14 16/27/12
f 7/17/13 8/18/15 18/29/16 17/28/14
f 8/18/15 9/19/17 19/30/18 18/29/16
f 9/19/17 10/20/19 20/31/20 19/30/18
f 10/20/19 1/21/1 11/32/4 20/31/20
f 53/75/21 52/76/22 54/43/23
f 55/77/24 53/75/21 54/43/23
f 56/78/25 55/77/24 54/43/23
f 57/79/26 56/78/25 54/43/23
f 58/80/27 57/79/26 54/43/23
f 59/81/28 58/80/27 54/43/23
f 60/82/29 59/81/28 54/43/23
f 61/83/30 60/82/29 54/43/23
f 62/84/31 61/83/30 54/43/23
f 52/76/22 62/84/31 54/43/23
f 41/65/32 42/66/33 43/44/34
f 42/66/33 44/67/35 43/44/34
f 44/67/35 45/68/36 43/44/34
f 45/68/36 46/69/37 43/44/34
f 46/69/37 47/70/38 43/44/34
f 47/70/38 48/71/39 43/44/34
f 48/71/39 49/72/40 43/44/34
f 49/72/40 50/73/41 43/44/34
f 50/73/41 51/74/42 43/44/34
f 51/74/42 41/65/32 43/44/34
f 11/41/4 12/40/3 22/46/43 21/45/44
f 12/40/3 13/39/6 23/47/45 22/46/43
f 13/39/6 14/38/8 24/48/46 23/47/45
f 14/38/8 15/37/10 25/49/47 24/48/46
f 15/37/10 16/36/12 26/50/48 25/49/47
f 16/36/12 17/35/14 27/51/49 26/50/48
f 17/35/14 18/34/16 28/52/50 27/51/49
f 18/34/16 19/33/18 29/53/51 28/52/50
f 19/33/18 20/42/20 30/54/52 29/53/51
f 20/42/20 11/41/4 21/45/44 30/54/52
f 21/45/44 22/46/43 32/56/53 31/55/54
f 22/46/43 23/47/45 33/57/55 32/56/53
f 23/47/45 24/48/46 34/58/56 33/57/55
f 24/48/46 25/49/47 35/59/57 34/58/56
f 25/49/47 26/50/48 36/60/58 35/59/57
f 26/50/48 27/51/49 37/61/59 36/60/58
f 27/51/49 28/52/50 38/62/60 37/61/59
f 28/52/50 29/53/51 39/63/61 38/62/60
f 29/53/51 30/54/52 40/64/62 39/63/61
f 30/54/52 21/45/44 31/55/54 40/64/62
f 31/55/54 32/56/53 42/66/33 41/65/32
f 32/56/53 33/57/55 44/67/35 42/66/33
f 33/57/55 34/58/56 45/68/36 44/67/35
f 34/58/56 35/59/57 46/69/37 45/68/36
f 35/59/57 36/60/58 47/70/38 46/69/37
f 36/60/58 37/61/59 48/71/39 47/70/38
f 37/61/59 38/62/60 49/72/40 48/71/39
f 38/62/60 39/63/61 50/73/41 49/72/40
f 39/63/61 40/64/62 51/74/42 50/73/41
f 40/64/62 31/55/54 41/65/32 51/74/42
f 2/2/2 1/1/1 52/76/22 53/75/21
f 3/3/5 2/2/2 53/75/21 55/77/24
f 4/4/7 3/3/5 55/77/24 56/78/25
f 5/5/9 4/4/7 56/78/25 57/79/26
f 6/6/11 5/5/9 57/79/26 58/80/27
f 7/7/13 6/6/11 58/80/27 59/81/28
f 8/8/15 7/7/13 59/81/28 60/82/29
f 9/9/17 8/8/15 60/82/29 61/83/30
f 10/10/19 9/9/17 61/83/30 62/84/31
f 1/1/1 10/10/19 62/84/31 52/76/22
