# This file uses centimeters as units for non-parametric coordinates.

mtllib DoorKnob.mtl
g default
v 9.871639 1.185708 1.231748
v 9.871639 1.217764 1.260148
v 9.871639 1.232951 1.300192
v 9.871639 1.227789 1.342707
v 9.871639 1.203460 1.377953
v 9.871639 1.165539 1.397856
v 9.871639 1.122712 1.397856
v 9.871639 1.084790 1.377953
v 9.871639 1.060461 1.342707
v 9.871639 1.055299 1.300192
v 9.871639 1.070486 1.260148
v 9.871639 1.102542 1.231748
v 9.871639 1.144125 1.221499
v 9.912768 1.223220 1.160274
v 9.912768 1.284195 1.214294
v 9.912768 1.313082 1.290462
v 9.912768 1.303263 1.371330
v 9.912768 1.256987 1.438372
v 9.912768 1.184856 1.476230
v 9.912768 1.103394 1.476230
v 9.912768 1.031263 1.438372
v 9.912768 0.984987 1.371330
v 9.912768 0.975168 1.290462
v 9.912768 1.004055 1.214294
v 9.912768 1.065030 1.160274
v 9.912768 1.144125 1.140779
v 9.976827 1.252990 1.103552
v 9.976827 1.336915 1.177904
v 9.976827 1.376675 1.282740
v 9.976827 1.363160 1.394046
v 9.976827 1.299467 1.486321
v 9.976827 1.200187 1.538428
v 9.976827 1.088064 1.538428
v 9.976827 0.988784 1.486321
v 9.976827 0.925091 1.394046
v 9.976827 0.911576 1.282741
v 9.976827 0.951335 1.177904
v 9.976827 1.035260 1.103552
v 9.976827 1.144125 1.076720
v 10.057547 1.272103 1.067135
v 10.057547 1.370764 1.154540
v 10.057547 1.417503 1.277783
v 10.057547 1.401616 1.408630
v 10.057547 1.326740 1.517107
v 10.057547 1.210029 1.578361
v 10.057547 1.078221 1.578361
v 10.057547 0.961510 1.517107
v 10.057547 0.886635 1.408631
v 10.057547 0.870747 1.277783
v 10.057547 0.917487 1.154540
v 10.057547 1.016147 1.067135
v 10.057547 1.144125 1.035591
v 10.147025 1.278689 1.054586
v 10.147025 1.382427 1.146489
v 10.147025 1.431572 1.276075
v 10.147025 1.414867 1.413656
v 10.147025 1.336138 1.527715
v 10.147025 1.213421 1.592121
v 10.147025 1.074829 1.592121
v 10.147025 0.952113 1.527715
v 10.147025 0.873383 1.413656
v 10.147025 0.856678 1.276075
v 10.147025 0.905823 1.146489
v 10.147025 1.009561 1.054586
v 10.147025 1.144125 1.021419
v 10.236503 1.272103 1.067135
v 10.236503 1.370764 1.154540
v 10.236503 1.417503 1.277783
v 10.236503 1.401616 1.408630
v 10.236503 1.326740 1.517107
v 10.236503 1.210029 1.578361
v 10.236503 1.078221 1.578361
v 10.236503 0.961510 1.517107
v 10.236503 0.886635 1.408631
v 10.236503 0.870747 1.277783
v 10.236503 0.917487 1.154540
v 10.236503 1.016147 1.067135
v 10.236503 1.144125 1.035591
v 10.317223 1.252990 1.103552
v 10.317223 1.336915 1.177904
v 10.317223 1.376675 1.282740
v 10.317223 1.363160 1.394046
v 10.317223 1.299467 1.486321
v 10.317223 1.200187 1.538428
v 10.317223 1.088064 1.538428
v 10.317223 0.988784 1.486321
v 10.317223 0.925091 1.394046
v 10.317223 0.911576 1.282741
v 10.317223 0.951335 1.177904
v 10.317223 1.035260 1.103552
v 10.317223 1.144125 1.076720
v 10.381283 1.223220 1.160274
v 10.381283 1.284195 1.214294
v 10.381283 1.313082 1.290462
v 10.381283 1.303263 1.371330
v 10.381283 1.256987 1.438372
v 10.381283 1.184856 1.476230
v 10.381283 1.103394 1.476230
v 10.381283 1.031263 1.438372
v 10.381283 0.984987 1.371330
v 10.381283 0.975168 1.290462
v 10.381283 1.004055 1.214294
v 10.381283 1.065030 1.160274
v 10.381283 1.144125 1.140779
v 10.422411 1.185708 1.231748
v 10.422411 1.217764 1.260148
v 10.422411 1.232951 1.300192
v 10.422411 1.227789 1.342707
v 10.422411 1.203460 1.377953
v 10.422411 1.165539 1.397856
v 10.422411 1.122712 1.397856
v 10.422411 1.084790 1.377953
v 10.422411 1.060461 1.342707
v 10.422411 1.055299 1.300192
v 10.422411 1.070486 1.260148
v 10.422411 1.102542 1.231748
v 10.422411 1.144125 1.221499
v 9.857467 1.144125 1.310977
v 10.436583 1.144125 1.310977
vt 0.000000 0.100000
vt 0.076923 0.100000
vt 0.153846 0.100000
vt 0.230769 0.100000
vt 0.307692 0.100000
vt 0.384615 0.100000
vt 0.461538 0.100000
vt 0.538462 0.100000
vt 0.615385 0.100000
vt 0.692308 0.100000
vt 0.769231 0.100000
vt 0.846154 0.100000
vt 0.923077 0.100000
vt 1.000000 0.100000
vt 0.000000 0.200000
vt 0.076923 0.200000
vt 0.153846 0.200000
vt 0.230769 0.200000
vt 0.307692 0.200000
vt 0.384615 0.200000
vt 0.461538 0.200000
vt 0.538462 0.200000
vt 0.615385 0.200000
vt 0.692308 0.200000
vt 0.769231 0.200000
vt 0.846154 0.200000
vt 0.923077 0.200000
vt 1.000000 0.200000
vt 0.000000 0.300000
vt 0.076923 0.300000
vt 0.153846 0.300000
vt 0.230769 0.300000
vt 0.307692 0.300000
vt 0.384615 0.300000
vt 0.461538 0.300000
vt 0.538462 0.300000
vt 0.615385 0.300000
vt 0.692308 0.300000
vt 0.769231 0.300000
vt 0.846154 0.300000
vt 0.923077 0.300000
vt 1.000000 0.300000
vt 0.000000 0.400000
vt 0.076923 0.400000
vt 0.153846 0.400000
vt 0.230769 0.400000
vt 0.307692 0.400000
vt 0.384615 0.400000
vt 0.461538 0.400000
vt 0.538462 0.400000
vt 0.615385 0.400000
vt 0.692308 0.400000
vt 0.769231 0.400000
vt 0.846154 0.400000
vt 0.923077 0.400000
vt 1.000000 0.400000
vt 0.000000 0.500000
vt 0.076923 0.500000
vt 0.153846 0.500000
vt 0.230769 0.500000
vt 0.307692 0.500000
vt 0.384615 0.500000
vt 0.461538 0.500000
vt 0.538462 0.500000
vt 0.615385 0.500000
vt 0.692308 0.500000
vt 0.769231 0.500000
vt 0.846154 0.500000
vt 0.923077 0.500000
vt 1.000000 0.500000
vt 0.000000 0.600000
vt 0.076923 0.600000
vt 0.153846 0.600000
vt 0.230769 0.600000
vt 0.307692 0.600000
vt 0.384615 0.600000
vt 0.461538 0.600000
vt 0.538462 0.600000
vt 0.615385 0.600000
vt 0.692308 0.600000
vt 0.769231 0.600000
vt 0.846154 0.600000
vt 0.923077 0.600000
vt 1.000000 0.600000
vt 0.000000 0.700000
vt 0.076923 0.700000
vt 0.153846 0.700000
vt 0.230769 0.700000
vt 0.307692 0.700000
vt 0.384615 0.700000
vt 0.461538 0.700000
vt 0.538462 0.700000
vt 0.615385 0.700000
vt 0.692308 0.700000
vt 0.769231 0.700000
vt 0.846154 0.700000
vt 0.923077 0.700000
vt 1.000000 0.700000
vt 0.000000 0.800000
vt 0.076923 0.800000
vt 0.153846 0.800000
vt 0.230769 0.800000
vt 0.307692 0.800000
vt 0.384615 0.800000
vt 0.461538 0.800000
vt 0.538462 0.800000
vt 0.615385 0.800000
vt 0.692308 0.800000
vt 0.769231 0.800000
vt 0.846154 0.800000
vt 0.923077 0.800000
vt 1.000000 0.800000
vt 0.000000 0.900000
vt 0.076923 0.900000
vt 0.153846 0.900000
vt 0.230769 0.900000
vt 0.307692 0.900000
vt 0.384615 0.900000
vt 0.461538 0.900000
vt 0.538462 0.900000
vt 0.615385 0.900000
vt 0.692308 0.900000
vt 0.769231 0.900000
vt 0.846154 0.900000
vt 0.923077 0.900000
vt 1.000000 0.900000
vt 0.038462 0.000000
vt 0.115385 0.000000
vt 0.192308 0.000000
vt 0.269231 0.000000
vt 0.346154 0.000000
vt 0.423077 0.000000
vt 0.500000 0.000000
vt 0.576923 0.000000
vt 0.653846 0.000000
vt 0.730769 0.000000
vt 0.807692 0.000000
vt 0.884615 0.000000
vt 0.961538 0.000000
vt 0.038462 1.000000
vt 0.115385 1.000000
vt 0.192308 1.000000
vt 0.269231 1.000000
vt 0.346154 1.000000
vt 0.423077 1.000000
vt 0.500000 1.000000
vt 0.576923 1.000000
vt 0.653846 1.000000
vt 0.730769 1.000000
vt 0.807692 1.000000
vt 0.884615 1.000000
vt 0.961538 1.000000
vn -0.918117 0.184174 -0.350915
vn -0.918117 0.326156 -0.225130
vn -0.776910 0.518160 -0.357660
vn -0.776910 0.292595 -0.557494
vn -0.918117 0.393420 -0.047770
vn -0.776910 0.625021 -0.075892
vn -0.918117 0.370556 0.140533
vn -0.776910 0.588697 0.223263
vn -0.918117 0.262802 0.296642
vn -0.776910 0.417510 0.471271
vn -0.918117 0.094843 0.384794
vn -0.776910 0.150676 0.611317
vn -0.918117 -0.094843 0.384794
vn -0.776910 -0.150676 0.611317
vn -0.918117 -0.262802 0.296642
vn -0.776910 -0.417510 0.471271
vn -0.918117 -0.370556 0.140533
vn -0.776910 -0.588697 0.223264
vn -0.918117 -0.393420 -0.047770
vn -0.776910 -0.625021 -0.075891
vn -0.918117 -0.326157 -0.225129
vn -0.776910 -0.518161 -0.357660
vn -0.918117 -0.184174 -0.350915
vn -0.776910 -0.292595 -0.557494
vn -0.918117 -0.000000 -0.396310
vn -0.776910 -0.000000 -0.629612
vn -0.561419 0.681045 -0.470092
vn -0.561419 0.384573 -0.732743
vn -0.561419 0.821498 -0.099748
vn -0.561419 0.773756 0.293447
vn -0.561419 0.548755 0.619416
vn -0.561419 0.198041 0.803485
vn -0.561419 -0.198041 0.803485
vn -0.561419 -0.548755 0.619416
vn -0.561419 -0.773756 0.293447
vn -0.561419 -0.821498 -0.099748
vn -0.561419 -0.681045 -0.470092
vn -0.561419 -0.384573 -0.732743
vn -0.561419 -0.000000 -0.827532
vn -0.294087 0.786590 -0.542944
vn -0.294087 0.444172 -0.846300
vn -0.294087 0.948810 -0.115207
vn -0.294087 0.893669 0.338924
vn -0.294087 0.633799 0.715410
vn -0.294087 0.228733 0.928005
vn -0.294087 -0.228733 0.928005
vn -0.294087 -0.633798 0.715411
vn -0.294087 -0.893668 0.338924
vn -0.294087 -0.948810 -0.115206
vn -0.294087 -0.786590 -0.542944
vn -0.294087 -0.444172 -0.846300
vn -0.294087 -0.000000 -0.955779
vn -0.000000 0.822984 -0.568065
vn -0.000000 0.464723 -0.885456
vn -0.000000 0.992709 -0.120537
vn 0.000000 0.935016 0.354605
vn 0.000000 0.663123 0.748511
vn 0.000000 0.239316 0.970942
vn -0.000000 -0.239316 0.970942
vn -0.000000 -0.663123 0.748511
vn 0.000000 -0.935016 0.354605
vn -0.000000 -0.992709 -0.120537
vn 0.000000 -0.822984 -0.568065
vn 0.000000 -0.464723 -0.885456
vn -0.000000 -0.000000 -1.000000
vn 0.294087 0.786590 -0.542944
vn 0.294087 0.444172 -0.846300
vn 0.294087 0.948810 -0.115207
vn 0.294087 0.893669 0.338924
vn 0.294087 0.633799 0.715410
vn 0.294087 0.228733 0.928005
vn 0.294087 -0.228733 0.928005
vn 0.294087 -0.633798 0.715411
vn 0.294087 -0.893669 0.338924
vn 0.294087 -0.948810 -0.115206
vn 0.294087 -0.786590 -0.542944
vn 0.294087 -0.444172 -0.846300
vn 0.294087 -0.000000 -0.955779
vn 0.561419 0.681045 -0.470092
vn 0.561419 0.384573 -0.732743
vn 0.561419 0.821498 -0.099748
vn 0.561419 0.773756 0.293447
vn 0.561419 0.548755 0.619416
vn 0.561419 0.198041 0.803485
vn 0.561419 -0.198041 0.803485
vn 0.561419 -0.548755 0.619416
vn 0.561419 -0.773756 0.293447
vn 0.561419 -0.821498 -0.099748
vn 0.561419 -0.681045 -0.470092
vn 0.561419 -0.384573 -0.732743
vn 0.561419 -0.000000 -0.827532
vn 0.776910 0.518160 -0.357660
vn 0.776910 0.292595 -0.557494
vn 0.776910 0.625021 -0.075892
vn 0.776910 0.588698 0.223263
vn 0.776910 0.417510 0.471271
vn 0.776910 0.150676 0.611317
vn 0.776910 -0.150676 0.611317
vn 0.776910 -0.417510 0.471271
vn 0.776910 -0.588697 0.223264
vn 0.776910 -0.625021 -0.075891
vn 0.776910 -0.518161 -0.357660
vn 0.776910 -0.292595 -0.557494
vn 0.776910 -0.000000 -0.629612
vn 0.918117 0.326156 -0.225130
vn 0.918117 0.184174 -0.350915
vn 0.918117 0.393420 -0.047770
vn 0.918117 0.370556 0.140533
vn 0.918117 0.262802 0.296642
vn 0.918117 0.094843 0.384794
vn 0.918117 -0.094843 0.384794
vn 0.918117 -0.262802 0.296642
vn 0.918117 -0.370556 0.140533
vn 0.918117 -0.393420 -0.047770
vn 0.918117 -0.326156 -0.225130
vn 0.918117 -0.184174 -0.350915
vn 0.918117 -0.000000 -0.396310
vn -1.000000 -0.000000 0.000000
vn 1.000000 -0.000000 0.000000
s 1
g DoorKnob1 Doors1 HouseBase1
usemtl blinn8SG
f 1/1/1 2/2/2 15/16/3 14/15/4
f 2/2/2 3/3/5 16/17/6 15/16/3
f 3/3/5 4/4/7 17/18/8 16/17/6
f 4/4/7 5/5/9 18/19/10 17/18/8
f 5/5/9 6/6/11 19/20/12 18/19/10
f 6/6/11 7/7/13 20/21/14 19/20/12
f 7/7/13 8/8/15 21/22/16 20/21/14
f 8/8/15 9/9/17 22/23/18 21/22/16
f 9/9/17 10/10/19 23/24/20 22/23/18
f 10/10/19 11/11/21 24/25/22 23/24/20
f 11/11/21 12/12/23 25/26/24 24/25/22
f 12/12/23 13/13/25 26/27/26 25/26/24
f 13/13/25 1/14/1 14/28/4 26/27/26
f 14/15/4 15/16/3 28/30/27 27/29/28
f 15/16/3 16/17/6 29/31/29 28/30/27
f 16/17/6 17/18/8 30/32/30 29/31/29
f 17/18/8 18/19/10 31/33/31 30/32/30
f 18/19/10 19/20/12 32/34/32 31/33/31
f 19/20/12 20/21/14 33/35/33 32/34/32
f 20/21/14 21/22/16 34/36/34 33/35/33
f 21/22/16 22/23/18 35/37/35 34/36/34
f 22/23/18 23/24/20 36/38/36 35/37/35
f 23/24/20 24/25/22 37/39/37 36/38/36
f 24/25/22 25/26/24 38/40/38 37/39/37
f 25/26/24 26/27/26 39/41/39 38/40/38
f 26/27/26 14/28/4 27/42/28 39/41/39
f 27/29/28 28/30/27 41/44/40 40/43/41
f 28/30/27 29/31/29 42/45/42 41/44/40
f 29/31/29 30/32/30 43/46/43 42/45/42
f 30/32/30 31/33/31 44/47/44 43/46/43
f 31/33/31 32/34/32 45/48/45 44/47/44
f 32/34/32 33/35/33 46/49/46 45/48/45
f 33/35/33 34/36/34 47/50/47 46/49/46
f 34/36/34 35/37/35 48/51/48 47/50/47
f 35/37/35 36/38/36 49/52/49 48/51/48
f 36/38/36 37/39/37 50/53/50 49/52/49
f 37/39/37 38/40/38 51/54/51 50/53/50
f 38/40/38 39/41/39 52/55/52 51/54/51
f 39/41/39 27/42/28 40/56/41 52/55/52
f 40/43/41 41/44/40 54/58/53 53/57/54
f 41/44/40 42/45/42 55/59/55 54/58/53
f 42/45/42 43/46/43 56/60/56 55/59/55
f 43/46/43 44/47/44 57/61/57 56/60/56
f 44/47/44 45/48/45 58/62/58 57/61/57
f 45/48/45 46/49/46 59/63/59 58/62/58
f 46/49/46 47/50/47 60/64/60 59/63/59
f 47/50/47 48/51/48 61/65/61 60/64/60
f 48/51/48 49/52/49 62/66/62 61/65/61
f 49/52/49 50/53/50 63/67/63 62/66/62
f 50/53/50 51/54/51 64/68/64 63/67/63
f 51/54/51 52/55/52 65/69/65 64/68/64
f 52/55/52 40/56/41 53/70/54 65/69/65
f 53/57/54 54/58/53 67/72/66 66/71/67
f 54/58/53 55/59/55 68/73/68 67/72/66
f 55/59/55 56/60/56 69/74/69 68/73/68
f 56/60/56 57/61/57 70/75/70 69/74/69
f 57/61/57 58/62/58 71/76/71 70/75/70
f 58/62/58 59/63/59 72/77/72 71/76/71
f 59/63/59 60/64/60 73/78/73 72/77/72
f 60/64/60 61/65/61 74/79/74 73/78/73
f 61/65/61 62/66/62 75/80/75 74/79/74
f 62/66/62 63/67/63 76/81/76 75/80/75
f 63/67/63 64/68/64 77/82/77 76/81/76
f 64/68/64 65/69/65 78/83/78 77/82/77
f 65/69/65 53/70/54 66/84/67 78/83/78
f 66/71/67 67/72/66 80/86/79 79/85/80
f 67/72/66 68/73/68 81/87/81 80/86/79
f 68/73/68 69/74/69 82/88/82 81/87/81
f 69/74/69 70/75/70 83/89/83 82/88/82
f 70/75/70 71/76/71 84/90/84 83/89/83
f 71/76/71 72/77/72 85/91/85 84/90/84
f 72/77/72 73/78/73 86/92/86 85/91/85
f 73/78/73 74/79/74 87/93/87 86/92/86
f 74/79/74 75/80/75 88/94/88 87/93/87
f 75/80/75 76/81/76 89/95/89 88/94/88
f 76/81/76 77/82/77 90/96/90 89/95/89
f 77/82/77 78/83/78 91/97/91 90/96/90
f 78/83/78 66/84/67 79/98/80 91/97/91
f 79/85/80 80/86/79 93/100/92 92/99/93
f 80/86/79 81/87/81 94/101/94 93/100/92
f 81/87/81 82/88/82 95/102/95 94/101/94
f 82/88/82 83/89/83 96/103/96 95/102/95
f 83/89/83 84/90/84 97/104/97 96/103/96
f 84/90/84 85/91/85 98/105/98 97/104/97
f 85/91/85 86/92/86 99/106/99 98/105/98
f 86/92/86 87/93/87 100/107/100 99/106/99
f 87/93/87 88/94/88 101/108/101 100/107/100
f 88/94/88 89/95/89 102/109/102 101/108/101
f 89/95/89 90/96/90 103/110/103 102/109/102
f 90/96/90 91/97/91 104/111/104 103/110/103
f 91/97/91 79/98/80 92/112/93 104/111/104
f 92/99/93 93/100/92 106/114/105 105/113/106
f 93/100/92 94/101/94 107/115/107 106/114/105
f 94/101/94 95/102/95 108/116/108 107/115/107
f 95/102/95 96/103/96 109/117/109 108/116/108
f 96/103/96 97/104/97 110/118/110 109/117/109
f 97/104/97 98/105/98 111/119/111 110/118/110
f 98/105/98 99/106/99 112/120/112 111/119/111
f 99/106/99 100/107/100 113/121/113 112/120/112
f 100/107/100 101/108/101 114/122/114 113/121/113
f 101/108/101 102/109/102 115/123/115 114/122/114
f 102/109/102 103/110/103 116/124/116 115/123/115
f 103/110/103 104/111/104 117/125/117 116/124/116
f 104/111/104 92/112/93 105/126/106 117/125/117
f 2/2/2 1/1/1 118/127/118
f 3/3/5 2/2/2 118/128/118
f 4/4/7 3/3/5 118/129/118
f 5/5/9 4/4/7 118/130/118
f 6/6/11 5/5/9 118/131/118
f 7/7/13 6/6/11 118/132/118
f 8/8/15 7/7/13 118/133/118
f 9/9/17 8/8/15 118/134/118
f 10/10/19 9/9/17 118/135/118
f 11/11/21 10/10/19 118/136/118
f 12/12/23 11/11/21 118/137/118
f 13/13/25 12/12/23 118/138/118
f 1/14/1 13/13/25 118/139/118
f 105/113/106 106/114/105 119/140/119
f 106/114/105 107/115/107 119/141/119
f 107/115/107 108/116/108 119/142/119
f 108/116/108 109/117/109 119/143/119
f 109/117/109 110/118/110 119/144/119
f 110/118/110 111/119/111 119/145/119
f 111/119/111 112/120/112 119/146/119
f 112/120/112 113/121/113 119/147/119
f 113/121/113 114/122/114 119/148/119
f 114/122/114 115/123/115 119/149/119
f 115/123/115 116/124/116 119/150/119
f 116/124/116 117/125/117 119/151/119
f 117/125/117 105/126/106 119/152/119
