# This file uses centimeters as units for non-parametric coordinates.

mtllib ButterflyNutS.mtl
g default
v 0.236339 0.409351 0.524516
v -0.236339 0.409351 0.524516
v -0.472678 0.000000 0.524516
v -0.236339 -0.409351 0.524516
v 0.236339 -0.409351 0.524516
v 0.472678 0.000000 0.524516
v 0.236339 0.409351 0.903341
v -0.236339 0.409351 0.903341
v -0.472678 0.000000 0.903341
v -0.236339 -0.409351 0.903341
v 0.236339 -0.409351 0.903341
v 0.472678 0.000000 0.903341
v 0.000000 0.000000 0.524516
v 0.000000 0.000000 0.903341
vt 0.158047 0.356804
vt 0.153877 0.356804
vt 0.151792 0.360416
vt 0.153877 0.364027
vt 0.158047 0.364027
vt 0.160133 0.360416
vt 0.152626 0.364586
vt 0.153738 0.364586
vt 0.154850 0.364586
vt 0.155962 0.364586
vt 0.157074 0.364586
vt 0.158186 0.364586
vt 0.159299 0.364586
vt 0.152626 0.374620
vt 0.153738 0.374620
vt 0.154850 0.374620
vt 0.155962 0.374620
vt 0.157074 0.374620
vt 0.158186 0.374620
vt 0.159299 0.374620
vt 0.158047 0.375154
vt 0.153877 0.375154
vt 0.151792 0.378765
vt 0.153877 0.382377
vt 0.158047 0.382377
vt 0.160133 0.378765
vt 0.155962 0.360249
vt 0.155962 0.378598
vn 0.000000 1.000000 -0.000000
vn 0.000000 1.000000 -0.000000
vn 0.000000 1.000000 -0.000000
vn 0.000000 1.000000 -0.000000
vn -0.866025 0.500000 -0.000000
vn -0.866025 0.500000 -0.000000
vn -0.866025 0.500000 -0.000000
vn -0.866025 0.500000 -0.000000
vn -0.866026 -0.500000 0.000000
vn -0.866026 -0.500000 0.000000
vn -0.866026 -0.500000 0.000000
vn -0.866026 -0.500000 0.000000
vn -0.000000 -1.000000 0.000000
vn -0.000000 -1.000000 0.000000
vn -0.000000 -1.000000 0.000000
vn -0.000000 -1.000000 0.000000
vn 0.866025 -0.500000 0.000000
vn 0.866025 -0.500000 0.000000
vn 0.866025 -0.500000 0.000000
vn 0.866025 -0.500000 0.000000
vn 0.866026 0.500000 -0.000000
vn 0.866026 0.500000 -0.000000
vn 0.866026 0.500000 -0.000000
vn 0.866026 0.500000 -0.000000
vn 0.000000 -0.000000 -1.000000
vn 0.000000 -0.000000 -1.000000
vn 0.000000 0.000000 -1.000000
vn 0.000000 -0.000000 -1.000000
vn 0.000000 0.000000 -1.000000
vn 0.000000 0.000000 -1.000000
vn 0.000000 -0.000000 -1.000000
vn 0.000000 0.000000 1.000000
vn 0.000000 0.000000 1.000000
vn 0.000000 0.000000 1.000000
vn 0.000000 0.000000 1.000000
vn 0.000000 0.000000 1.000000
vn 0.000000 -0.000000 1.000000
vn 0.000000 -0.000000 1.000000
s off
g pCylinder2
usemtl blinn1SG
f 1/7/1 2/8/2 8/15/3 7/14/4
f 2/8/5 3/9/6 9/16/7 8/15/8
f 3/9/9 4/10/10 10/17/11 9/16/12
f 4/10/13 5/11/14 11/18/15 10/17/16
f 5/11/17 6/12/18 12/19/19 11/18/20
f 6/12/21 1/13/22 7/20/23 12/19/24
s 1
f 2/2/25 1/1/26 13/27/27
f 3/3/28 2/2/25 13/27/27
f 4/4/29 3/3/28 13/27/27
f 5/5/30 4/4/29 13/27/27
f 6/6/31 5/5/30 13/27/27
f 1/1/26 6/6/31 13/27/27
s 2
f 7/25/32 8/24/33 14/28/34
f 8/24/33 9/23/35 14/28/34
f 9/23/35 10/22/36 14/28/34
f 10/22/36 11/21/37 14/28/34
f 11/21/37 12/26/38 14/28/34
f 12/26/38 7/25/32 14/28/34
